<svg width="92" height="37" viewBox="0 0 92 37" fill="none" xmlns="http://www.w3.org/2000/svg">
<g id="Vespi">
<g id="Vespi_2">
<path d="M3.77051 4.70361L12.1685 27.5742H14.3203L22.5088 5.37012C23.8228 1.80908 24.394 1.18066 26.5649 0.89502V0H18.8145V0.89502C21.6899 1.27588 21.9946 2.01855 20.8711 5.2749L14.6821 23.2515L8.15039 4.70361C7.1792 1.96143 7.59814 1.21875 10.2451 0.89502V0H0V0.89502C2.07568 1.18066 2.7041 1.80908 3.77051 4.70361Z" fill="black"/>
<path d="M23.7847 18.2241C23.7847 24.0894 27.6885 27.8599 32.9634 27.8599C36.1245 27.8599 38.6191 26.6411 39.8569 24.9272V24.0322C38.7524 25.1558 37.0386 25.9175 34.9438 25.9175C30.6211 25.9175 27.7456 22.4707 27.5933 17.4053H40.1616C40.1997 17.1196 40.2378 16.7007 40.2378 16.3008C40.2378 11.6543 37.4385 8.53125 32.5444 8.53125C27.2505 8.53125 23.7847 12.5874 23.7847 18.2241ZM32.5254 9.75C35.2295 9.75 36.6196 12.1685 36.6196 15.7104C36.6196 15.939 36.6196 16.1294 36.6006 16.3198L27.5933 16.3579C27.7646 12.0352 29.6499 9.75 32.5254 9.75Z" fill="black"/>
<path d="M43.7988 13.8442C43.7988 16.7007 45.8364 18.3193 49.207 19.3667L50.6733 19.8237C53.2441 20.6045 54.3296 21.5947 54.3296 23.3848C54.3296 25.2319 52.7681 26.584 50.3306 26.584C47.7026 26.584 45.1699 24.7749 44.4463 21.252H43.6274L43.8179 26.2412C45.0938 27.1362 47.5312 27.8218 50.3496 27.8218C54.082 27.8218 57.5288 25.7651 57.5288 22.3374C57.5288 19.3096 55.5674 17.5576 52.2158 16.5483L50.7495 16.1104C48.3691 15.3677 46.998 14.5298 46.998 12.7397C46.998 10.9497 48.4834 9.75 50.8828 9.75C53.3584 9.75 55.3198 11.3877 55.8721 14.4727H56.71L56.5957 9.76904C55.6436 9.12158 53.606 8.53125 50.8638 8.53125C46.7886 8.53125 43.7988 10.4546 43.7988 13.8442Z" fill="black"/>
<path d="M80.1328 18.0146C80.1328 11.9971 76.4956 8.53125 72.4014 8.53125C69.6592 8.53125 67.2217 9.90234 66.1934 11.978V8.68359L60.0425 9.38818V10.1689L61.2803 10.5308C62.3467 10.8354 62.499 11.064 62.499 12.0732V33.5728C62.499 34.7915 62.2134 35.0962 60.0425 35.3628V36.2578H68.9355V35.3628C66.5171 35.0771 66.2505 34.7915 66.2505 33.3442V25.6318C67.1836 26.9458 68.9546 27.8599 71.1826 27.8599C76.1528 27.8599 80.1328 23.8989 80.1328 18.0146ZM76.21 18.4336C76.21 23.3086 73.8296 26.4888 70.3447 26.4888C68.4595 26.4888 66.8599 25.5557 66.2505 24.356V12.7778C67.0884 11.2925 68.5737 10.4736 70.5732 10.4736C73.9058 10.4736 76.21 13.5586 76.21 18.4336Z" fill="black"/>
<path d="M86.855 5.12256C88.1309 5.12256 89.1592 4.13232 89.1592 2.89453C89.1592 1.6377 88.1309 0.666504 86.855 0.666504C85.5791 0.666504 84.5508 1.6377 84.5508 2.89453C84.5508 4.13232 85.5791 5.12256 86.855 5.12256ZM89.1021 8.68359L82.894 9.38818V10.1689L84.1318 10.5308C85.1982 10.8354 85.3506 11.064 85.3506 12.0732V24.7559C85.3506 26.0127 85.0269 26.3174 82.894 26.603V27.498H91.5586V26.603C89.4258 26.3174 89.1021 26.0127 89.1021 24.7559V8.68359Z" fill="black"/>
</g>
</g>
</svg>
